# xmcd
#
# Track frame offsets: 
#        150
#        11130
#        21218
#        31483
#        42933
#        54678
#        71878
#        82278
#        94680
#        108555
#        120555
#        132590
#        147633
#        160988
#        176670
#        192833
#        205328
#        220375
#        233790
#        250655
#
# Disc length: 3558 seconds
#
# Revision: 3
# Processed by: cddbd v1.5.2PL0 Copyright (c) Steve Scherf et al.
# Submitted via: ExactAudioCopyFreeDBPlugin 1.0
#
DISCID=330de414
DTITLE=Various Artist - 恋すれど廃盤大全集　嗚呼懐かしの女性ポップス！[Disc.2]
DYEAR=1990
DGENRE=Pop
TTITLE0=いしだあゆみ - 太陽は泣いている
TTITLE1=ミミ - おしゃれな土曜日
TTITLE2=坂口良子 - サインはV
TTITLE3=三東ルシア - 危険な春
TTITLE4=辺見マリ - ダニエル・モナムール
TTITLE5=ジュディ・オング - たそがれの赤い月
TTITLE6=青い三角定規 - 太陽がくれた季節
TTITLE7=ヒデとロザンナ - 粋なうわさ
TTITLE8=やまがたすみこ - 風に吹かれて行こう
TTITLE9=いしだあゆみ - 喧嘩のあとでくちづけを
TTITLE10=辺見マリ - 私生活
TTITLE11=弘田三枝子 - 私が死んだら
TTITLE12=ヒデとロザンナ - ローマの奇跡
TTITLE13=ちあきなおみ - 四つのお願い
TTITLE14=しばたはつみ - 合鍵
TTITLE15=いしだあゆみ - 砂漠のような東京で
TTITLE16=ヒデとロザンナ - 愛は傷つきやすく
TTITLE17=ダ・カーポ - 結婚するって本当ですか
TTITLE18=内藤やす子 - 弟よ
TTITLE19=しまざき由理 - 面影
EXTD=YEAR: 1990
EXTT0=
EXTT1=
EXTT2=
EXTT3=
EXTT4=
EXTT5=
EXTT6=
EXTT7=
EXTT8=
EXTT9=
EXTT10=
EXTT11=
EXTT12=
EXTT13=
EXTT14=
EXTT15=
EXTT16=
EXTT17=
EXTT18=
EXTT19=
PLAYORDER=
